<svg xmlns="http://www.w3.org/2000/svg" width="480" height="320" viewBox="0 0 480 320" role="img" aria-label="Properties from a Curated List or Location">
  <rect width="480" height="320" rx="12" fill="#f3f4f6"/>
  <rect x="40" y="34" width="124" height="100" rx="8" fill="#fff" stroke="#d1d5db"/>
  <rect x="46" y="40" width="112" height="56" rx="5" fill="#d1d5db"/>
  <rect x="48" y="104" width="80" height="8" rx="4" fill="#4b5563"/>
  <rect x="48" y="118" width="56" height="6" rx="3" fill="#9ca3af"/>
  <rect x="178" y="34" width="124" height="100" rx="8" fill="#fff" stroke="#d1d5db"/>
  <rect x="184" y="40" width="112" height="56" rx="5" fill="#d1d5db"/>
  <rect x="186" y="104" width="80" height="8" rx="4" fill="#4b5563"/>
  <rect x="186" y="118" width="56" height="6" rx="3" fill="#9ca3af"/>
  <rect x="316" y="34" width="124" height="100" rx="8" fill="#fff" stroke="#d1d5db"/>
  <rect x="322" y="40" width="112" height="56" rx="5" fill="#d1d5db"/>
  <rect x="324" y="104" width="80" height="8" rx="4" fill="#4b5563"/>
  <rect x="324" y="118" width="56" height="6" rx="3" fill="#9ca3af"/>
  <rect x="40" y="146" width="124" height="100" rx="8" fill="#fff" stroke="#d1d5db"/>
  <rect x="46" y="152" width="112" height="56" rx="5" fill="#d1d5db"/>
  <rect x="48" y="216" width="80" height="8" rx="4" fill="#4b5563"/>
  <rect x="48" y="230" width="56" height="6" rx="3" fill="#9ca3af"/>
  <rect x="178" y="146" width="124" height="100" rx="8" fill="#fff" stroke="#d1d5db"/>
  <rect x="184" y="152" width="112" height="56" rx="5" fill="#d1d5db"/>
  <rect x="186" y="216" width="80" height="8" rx="4" fill="#4b5563"/>
  <rect x="186" y="230" width="56" height="6" rx="3" fill="#9ca3af"/>
  <rect x="316" y="146" width="124" height="100" rx="8" fill="#fff" stroke="#d1d5db"/>
  <rect x="322" y="152" width="112" height="56" rx="5" fill="#d1d5db"/>
  <rect x="324" y="216" width="80" height="8" rx="4" fill="#4b5563"/>
  <rect x="324" y="230" width="56" height="6" rx="3" fill="#9ca3af"/>
  <text x="240" y="296" text-anchor="middle" font-family="system-ui, -apple-system, Segoe UI, sans-serif" font-size="17" fill="#4b5563">Properties from a Curated List or Location</text>
</svg>
