<svg xmlns="http://www.w3.org/2000/svg" viewBox="0 0 160 100" width="160" height="100" fill="none">
  <rect width="160" height="100" rx="6" fill="#e8ecf1"/>
  <rect x="50" y="12" width="60" height="7" rx="2" fill="#33475b"/>
  <rect x="12" y="30" width="40" height="34" rx="3" fill="#9fb0c2"/>
  <rect x="12" y="70" width="30" height="5" rx="2" fill="#5b7a99"/>
  <rect x="12" y="80" width="36" height="4" rx="2" fill="#c5d0dc"/>
  <rect x="60" y="30" width="40" height="34" rx="3" fill="#9fb0c2"/>
  <rect x="60" y="70" width="30" height="5" rx="2" fill="#5b7a99"/>
  <rect x="60" y="80" width="36" height="4" rx="2" fill="#c5d0dc"/>
  <rect x="108" y="30" width="40" height="34" rx="3" fill="#9fb0c2"/>
  <rect x="108" y="70" width="30" height="5" rx="2" fill="#5b7a99"/>
  <rect x="108" y="80" width="36" height="4" rx="2" fill="#c5d0dc"/>
  <rect x="110" y="8" width="34" height="5" rx="2" fill="#5b7a99"/>
</svg>
