<svg xmlns="http://www.w3.org/2000/svg" viewBox="0 0 160 100" width="160" height="100" fill="none">
  <rect width="160" height="100" rx="6" fill="#e8ecf1"/>
  <rect x="50" y="14" width="60" height="6" rx="2" fill="#33475b"/>
  <rect x="8" y="30" width="144" height="32" rx="4" fill="#33475b"/>
  <circle cx="22" cy="46" r="5" fill="#f2b84b"/>
  <rect x="31" y="41" width="10" height="6" rx="2" fill="#ffffff"/>
  <rect x="31" y="49" width="16" height="3" rx="1.5" fill="#c5d0dc"/>
  <circle cx="66" cy="46" r="5" fill="#f2b84b"/>
  <rect x="75" y="43" width="22" height="6" rx="2" fill="#ffffff"/>
  <circle cx="112" cy="46" r="5" fill="#f2b84b"/>
  <rect x="121" y="41" width="10" height="6" rx="2" fill="#ffffff"/>
  <rect x="121" y="49" width="16" height="3" rx="1.5" fill="#c5d0dc"/>
  <g fill="#9fb0c2">
    <rect x="12" y="72" width="26" height="12" rx="3"/>
    <rect x="46" y="72" width="26" height="12" rx="3"/>
    <rect x="80" y="72" width="26" height="12" rx="3"/>
    <rect x="114" y="72" width="26" height="12" rx="3"/>
  </g>
</svg>
